<svg width="400" height="55" viewBox="0 0 400 55" fill="none" xmlns="http://www.w3.org/2000/svg">
<path d="M31.8957 0.0488967C31.7394 0.0684278 31.1828 0.136786 30.675 0.19538C27.4035 0.566469 23.8196 1.62115 20.763 3.11527C15.8216 5.52735 12.101 9.04294 9.77678 13.496C7.31587 18.2128 6.4565 24.4139 7.44282 30.3611C7.56001 31.0349 7.70649 31.7087 7.77485 31.8747C7.95063 32.3044 8.35101 32.6267 8.80023 32.7048C9.73772 32.8806 10.4115 32.4021 10.6947 31.3767C11.3881 28.8669 12.9799 25.5467 14.6791 23.1151C17.9603 18.3983 23.0384 14.7362 28.9074 12.8417C31.7687 11.9238 34.0539 11.5722 37.2179 11.5722C39.7862 11.5722 41.2706 11.748 43.419 12.3046C46.1143 12.998 47.1397 12.5585 47.8135 10.4199C48.6338 7.82225 48.1846 5.64454 46.4658 3.83792C44.6006 1.86528 41.5635 0.605531 37.5499 0.136786C36.4171 0.00983463 32.7746 -0.0487585 31.8957 0.0488967Z" fill="#4659A4"/>
<path d="M52.9109 8.57454C52.0125 8.93586 51.3875 9.53156 50.9676 10.4202C50.4109 11.5823 50.5086 12.9104 51.2312 14.0237C51.6219 14.6096 52.0027 14.9221 52.7937 15.2932C53.2918 15.5178 53.4968 15.5569 54.2097 15.5569C55.7136 15.5471 56.8171 14.8733 57.4519 13.5842C57.7546 12.9788 57.7741 12.8616 57.7741 11.9534C57.7741 11.0745 57.7448 10.9183 57.4909 10.4007C57.1296 9.65851 56.4948 9.03352 55.7917 8.70149C55.0398 8.34993 53.6335 8.29134 52.9109 8.57454Z" fill="#4659A4"/>
<path d="M223.045 10.0003C219.725 10.5374 216.649 12.0023 214.119 14.2288C208.797 18.926 206.756 26.7775 209.051 33.6719C209.979 36.4258 211.444 38.7598 213.553 40.8203C215.867 43.0859 218.319 44.4824 221.346 45.2539C223.084 45.6933 224.383 45.83 226.248 45.7617C230.682 45.6054 234.647 43.8769 237.811 40.7227C239.803 38.7207 241.219 36.4356 242.107 33.7794C242.772 31.7774 243.133 29.6486 242.967 28.7404C242.762 27.6564 241.951 26.963 240.779 26.8654C240.047 26.8068 239.315 27.09 238.865 27.5978C238.455 28.0763 238.397 28.2716 238.182 29.8439C237.313 36.25 231.893 41.1035 225.584 41.1035C220.838 41.1035 216.375 38.2129 214.217 33.7305C213.319 31.8458 212.879 29.922 212.889 27.7736C212.889 26.3576 212.987 25.547 213.338 24.2482C213.993 21.8459 215.164 19.8733 217.01 18.1057C219.461 15.7425 222.293 14.5999 225.643 14.5999C228.24 14.5999 230.36 15.2444 232.576 16.7092C233.68 17.4319 235.369 19.1506 236.111 20.3029C236.941 21.5822 237.078 21.7385 237.547 21.9924C237.859 22.1584 238.113 22.2072 238.69 22.2072C239.344 22.2072 239.481 22.1779 239.91 21.9143C240.809 21.3576 241.248 20.1565 240.926 19.1701C240.486 17.842 238.25 15.0979 236.385 13.594C234.315 11.9339 231.746 10.723 229.061 10.1468C227.781 9.87338 224.334 9.78549 223.045 10.0003Z" fill="white"/>
<path d="M383.161 10.0001C379.275 10.6348 375.954 12.3633 373.249 15.1856C372.273 16.2012 371.677 16.9629 371.013 18.0273C368.914 21.416 367.976 25.2441 368.269 29.16C368.757 35.5369 372.331 41.0349 377.839 43.8767C380.613 45.3024 383.142 45.8688 386.316 45.7614C390.046 45.6442 393.249 44.4919 396.267 42.197C397.692 41.113 399.45 39.2478 399.821 38.4177C400.202 37.5877 399.948 36.2498 399.314 35.6639C398.923 35.3025 398.239 35.0486 397.663 35.0486C396.833 35.0486 396.237 35.3709 395.593 36.1814C393.972 38.2127 391.784 39.7556 389.47 40.5173C386.765 41.3962 383.65 41.2693 381.052 40.1755C377.576 38.7107 374.89 35.7908 373.689 32.1873C373.21 30.7518 373.044 29.8046 372.986 28.3104C372.781 23.0468 375.622 18.1836 380.232 15.8789C381.286 15.3516 382.341 14.9903 383.484 14.7657C384.656 14.5313 386.882 14.5411 387.995 14.7657C391.101 15.42 393.718 17.0313 395.603 19.4433C396.257 20.2832 396.755 20.5468 397.722 20.5468C398.317 20.5468 398.474 20.5078 398.894 20.2539C399.567 19.834 399.939 19.1992 399.987 18.3887C400.046 17.5195 399.841 17.041 398.982 16.0156C396.482 13.0274 393.044 10.9864 389.118 10.1466C387.82 9.86337 384.49 9.78525 383.161 10.0001Z" fill="white"/>
<path d="M77.9883 10.5474C77.4414 10.8208 77.1094 11.1724 76.875 11.7193L76.6699 12.188L76.6895 27.9495L76.7187 43.7111L77.0117 44.1896C78.0176 45.8009 80.4785 45.6154 81.2109 43.8673C81.3378 43.5646 81.3574 41.5432 81.3574 27.8031C81.3574 10.6353 81.3964 11.8071 80.7812 11.104C80.1367 10.3618 78.8574 10.1079 77.9883 10.5474Z" fill="white"/>
<path d="M93.5061 10.479C93.008 10.6938 92.5295 11.1919 92.3049 11.6997L92.0999 12.1879L92.1194 27.9495L92.1487 43.711L92.4416 44.1895C93.2229 45.4395 94.9026 45.6739 96.0647 44.6876C96.2404 44.5411 96.4553 44.2579 96.5529 44.0626C96.7287 43.711 96.7385 43.1446 96.7873 30.928L96.8361 18.1644L103.037 26.9046C106.445 31.719 109.375 35.7717 109.551 35.9279C110.166 36.465 111.104 36.5627 111.895 36.1623C112.451 35.8889 111.846 36.7092 119.58 25.8206C122.725 21.3871 122.871 21.1332 122.715 20.3324C122.51 19.2289 121.592 18.4476 120.508 18.4476C120.059 18.4476 119.268 18.8383 118.896 19.2386C118.73 19.4242 116.914 21.9437 114.854 24.8441C112.803 27.7444 111.074 30.176 111.006 30.2444C110.908 30.342 109.463 28.3499 104.072 20.7523C100.332 15.4594 97.1291 11.0161 96.9631 10.8794C96.4357 10.4399 96.0647 10.3423 94.8928 10.3423C94.2092 10.352 93.7014 10.4009 93.5061 10.479Z" fill="white"/>
<path d="M126.289 10.5961C125.713 10.8891 125.263 11.4262 125.107 12.0121C125.039 12.2465 125.019 17.725 125.029 28.0373C125.058 45.459 125 43.9063 125.713 44.6192C126.836 45.752 128.798 45.4297 129.492 44.004L129.697 43.584V27.8127C129.697 12.6664 129.687 12.0317 129.511 11.6606C128.955 10.4692 127.509 9.99066 126.289 10.5961Z" fill="white"/>
<path d="M143.535 10.596C143.027 10.8596 142.548 11.4456 142.382 11.9924C142.314 12.2268 142.295 17.3928 142.314 28.0274L142.343 43.7108L142.636 44.1894C143.564 45.6835 145.761 45.664 146.709 44.1503L146.933 43.789L146.982 30.9668L147.031 18.1447L153.281 26.963C158.193 33.8965 159.619 35.8398 159.951 36.0742C160.331 36.3379 160.458 36.3672 161.074 36.3672C162.363 36.3672 162.001 36.7773 167.685 28.7794C170.439 24.8927 172.753 21.5626 172.822 21.3771C173.115 20.5861 172.919 19.7658 172.275 19.1213C171.366 18.2033 169.96 18.2619 169.091 19.2482C168.935 19.424 167.099 21.9728 165.019 24.9122C162.929 27.8614 161.191 30.2833 161.152 30.3028C161.113 30.3321 158.076 26.1036 154.404 20.9084C150.722 15.7131 147.568 11.3088 147.392 11.1038C146.835 10.4885 146.406 10.3421 145.117 10.3421C144.13 10.3518 143.955 10.3811 143.535 10.596Z" fill="white"/>
<path d="M176.503 10.5859C175.966 10.8593 175.536 11.3378 175.341 11.8945C175.234 12.1777 175.214 15.3905 175.204 27.783C175.204 45.3023 175.136 43.8668 175.976 44.648C176.903 45.5171 178.202 45.5367 179.14 44.7164C180.009 43.9449 179.94 45.4879 179.94 27.7244V12.0507L179.726 11.6601C179.452 11.1523 178.964 10.6835 178.505 10.498C177.939 10.2539 177.089 10.2929 176.503 10.5859Z" fill="white"/>
<path d="M193.768 10.5961C193.192 10.8891 192.743 11.4262 192.587 12.0121C192.518 12.2465 192.499 17.725 192.509 28.0374C192.538 45.459 192.479 43.9063 193.192 44.6192C194.384 45.8106 196.542 45.3419 197.089 43.7696C197.294 43.213 197.294 12.4321 197.089 11.8657C196.913 11.3676 196.347 10.7426 195.858 10.5278C195.263 10.2543 194.403 10.2836 193.768 10.5961Z" fill="white"/>
<path d="M254.305 10.498C253.104 11.0156 252.547 12.5097 253.123 13.6913C253.387 14.2382 253.963 14.7558 254.49 14.912C254.754 14.9999 256.727 15.0292 261.395 15.0292C266.687 15.0292 268.055 15.0585 268.592 15.1757C272.01 15.8983 274.031 19.3553 272.918 22.5682C272.342 24.2186 271.111 25.4588 269.344 26.1912C268.807 26.406 268.787 26.406 261.727 26.4549L254.637 26.5037L254.158 26.7576C253.533 27.0701 253.084 27.6658 252.938 28.3396C252.869 28.7009 252.84 31.113 252.859 36.1813C252.889 44.4625 252.84 43.9644 253.69 44.7164C254.627 45.5367 255.926 45.5171 256.854 44.648C257.654 43.9058 257.625 44.1597 257.625 37.275V31.24H262.889C266.102 31.24 268.455 31.2009 268.914 31.1325C273.357 30.5173 276.951 27.1189 277.781 22.744C277.986 21.6893 277.986 19.7362 277.781 18.7596C276.912 14.5116 273.66 11.2988 269.412 10.4882C268.26 10.2734 254.813 10.2734 254.305 10.498Z" fill="white"/>
<path d="M299.919 10.6059C299.627 10.7524 299.265 11.0356 299.119 11.2211C298.962 11.4164 296.189 18.0472 292.576 26.8459C285.828 43.2911 286.023 42.754 286.336 43.7012C286.492 44.1797 287.156 44.8926 287.654 45.1172C288.025 45.293 288.504 45.3028 295.984 45.3028C304.734 45.3028 304.294 45.3321 304.968 44.6875C305.496 44.1797 305.71 43.6915 305.701 42.9591C305.701 41.9727 305.212 41.1915 304.353 40.8009C303.992 40.6349 303.582 40.6153 298.132 40.6153C294.92 40.6153 292.293 40.5958 292.293 40.5665C292.293 40.5372 294.353 35.4982 296.863 29.3654C299.382 23.2229 301.472 18.1351 301.502 18.057C301.531 17.9789 301.56 17.9593 301.56 18.0179C301.58 18.2621 312.244 44.004 312.458 44.3458C312.595 44.5411 312.908 44.834 313.162 44.9805C313.572 45.2149 313.728 45.2539 314.421 45.2539C315.124 45.2539 315.261 45.2247 315.681 44.961C315.984 44.7754 316.277 44.4825 316.462 44.1895C316.726 43.7598 316.755 43.6231 316.755 42.92V42.129L310.515 26.8948C306.824 17.8617 304.177 11.5238 304.011 11.3188C303.865 11.1332 303.562 10.8403 303.337 10.684C302.937 10.4008 302.878 10.391 301.687 10.3617C300.496 10.3325 300.427 10.3422 299.919 10.6059Z" fill="white"/>
<path d="M320.251 10.547C319.782 10.7813 319.284 11.2989 319.089 11.7677C318.884 12.2462 318.923 13.1446 319.157 13.6622C319.421 14.2481 319.685 14.5215 320.271 14.795L320.759 15.0293H331.189C342.692 15.0293 341.989 15.0684 342.663 14.4141C343.874 13.2618 343.62 11.3087 342.165 10.586L341.667 10.3419H331.169C320.7 10.3419 320.661 10.3419 320.251 10.547Z" fill="white"/>
<path d="M354.012 10.4882C353.562 10.6933 353.074 11.1718 352.81 11.6601L352.596 12.0507V27.7244C352.596 45.4879 352.527 43.9449 353.396 44.7164C354.334 45.5367 355.633 45.5171 356.56 44.648C357.4 43.8668 357.342 45.3121 357.312 27.6169L357.283 11.9335L356.99 11.455C356.551 10.7519 355.926 10.4003 355.047 10.3613C354.578 10.3515 354.246 10.3906 354.012 10.4882Z" fill="white"/>
<path d="M58.6039 17.1876C58.2817 17.3146 57.9399 17.6466 57.7641 17.9786C57.5688 18.3595 57.5981 18.8575 57.8715 19.961C58.8871 23.9258 58.8871 28.3203 57.8813 32.2949C57.2661 34.707 56.0063 37.6171 54.6489 39.7362C54.2876 40.3026 53.9555 40.8885 53.9067 41.0448C53.604 42.0799 54.6587 43.2225 55.7036 43.0077C56.3188 42.8709 56.6313 42.578 57.3442 41.4647C58.6821 39.3554 59.9711 36.5038 60.6938 34.0722C62.0805 29.3945 62.1683 24.0137 60.9379 19.131C60.6547 17.9884 60.4984 17.6759 60.0492 17.3439C59.7465 17.1193 58.9653 17.0314 58.6039 17.1876Z" fill="#4659A4"/>
<path d="M330.31 18.604C329.724 18.8188 329.138 19.434 328.962 20.0395C328.757 20.7524 328.738 42.9689 328.953 43.6623C329.333 44.9221 330.632 45.5861 331.951 45.1857C332.449 45.0392 333.064 44.5119 333.337 43.9943L333.552 43.5939V31.8753C333.552 20.6254 333.542 20.1469 333.367 19.8149C333.113 19.3266 332.732 18.9458 332.283 18.7212C331.775 18.4575 330.847 18.3989 330.31 18.604Z" fill="white"/>
<path d="M31.9149 19.287C29.4442 19.8241 27.5497 21.5136 26.7001 23.9647C26.4559 24.6776 26.4364 24.8729 26.4364 26.1131C26.4266 27.3924 26.4462 27.5291 26.7391 28.3397C27.1493 29.5115 27.5692 30.1853 28.4286 31.0447C29.2782 31.8845 30.0985 32.4021 31.2117 32.7732C31.9051 33.0076 32.1395 33.0369 33.3602 33.0369C34.5808 33.0369 34.8152 33.0076 35.5086 32.7732C39.5906 31.4158 41.5046 26.8358 39.6003 22.9784C38.2332 20.1952 34.9715 18.6327 31.9149 19.287Z" fill="#51A8DE"/>
<path d="M48.0569 20.2928C47.6565 20.4979 47.2756 21.1034 47.2756 21.5233C47.2756 21.6893 47.3928 22.324 47.5393 22.9393C47.7835 23.9647 47.8127 24.2283 47.8127 26.0642C47.8127 28.3005 47.7151 28.9451 47.1194 30.7517C45.7034 34.9997 42.2366 38.4567 37.9593 39.8825C36.2113 40.4684 35.5375 40.566 33.3598 40.566C31.8461 40.566 31.2211 40.527 30.5766 40.3903C28.8676 40.0289 27.1684 39.3551 25.6353 38.4274C25.1567 38.1344 24.9614 38.0758 24.5122 38.0758C22.979 38.0758 22.3931 39.8922 23.604 40.8883C24.1704 41.357 26.2993 42.4117 27.5591 42.8414C32.7446 44.6285 38.4671 43.9254 43.0765 40.9274C44.2386 40.1754 45.1175 39.4332 46.2014 38.3004C49.6682 34.6872 51.4748 29.4822 50.9963 24.5506C50.8596 23.1834 50.4592 21.2596 50.2151 20.8397C49.8147 20.1463 48.8088 19.8827 48.0569 20.2928Z" fill="#4659A4"/>
<path d="M5.48937 21.4352C4.43469 22.3825 2.38393 25.2047 0.665201 28.0758C-0.0672132 29.2867 -0.164868 29.7359 0.225752 30.0093C0.587077 30.2632 0.880042 30.1949 2.30581 29.4918C3.40931 28.9449 4.63 28.4371 5.74327 28.066C5.83116 28.0367 5.86046 27.441 5.85069 25.8492C5.85069 23.9157 5.95811 22.0504 6.12413 21.2497C6.20225 20.8786 6.06553 20.9176 5.48937 21.4352Z" fill="#4659A4"/>
<path d="M224.598 26.9922C224.061 27.1875 223.651 27.5293 223.368 28.0176C223.143 28.3887 223.104 28.5743 223.104 29.1895C223.104 30.0195 223.241 30.3516 223.798 30.8887C224.442 31.5137 224.608 31.5332 228.758 31.5332C230.946 31.5332 232.626 31.4941 232.831 31.4355C233.339 31.2891 233.797 30.957 234.13 30.4785C234.383 30.1172 234.432 29.9414 234.462 29.3457C234.52 28.252 234.1 27.5098 233.163 27.0801C232.674 26.8458 232.665 26.8458 228.817 26.8555C225.819 26.8555 224.882 26.8848 224.598 26.9922Z" fill="white"/>
<path d="M53.2524 30.82C52.7836 31.0544 52.6176 31.3181 52.2172 32.4802C51.2114 35.4098 49.5903 38.0074 47.4223 40.1754C45.2251 42.3726 42.6568 43.9644 39.6099 45.0093C38.9752 45.2242 38.3599 45.4781 38.2525 45.5757C38.1549 45.6636 37.9791 45.937 37.8814 46.1714C37.4127 47.2066 38.1451 48.3296 39.2974 48.3296C40.2154 48.3296 43.5845 46.9527 45.4204 45.8199C49.1118 43.5445 52.1 40.2535 54.0531 36.318C54.932 34.5504 55.6351 32.4997 55.5375 31.9919C55.3422 30.9372 54.1996 30.3513 53.2524 30.82Z" fill="#4659A4"/>
<path d="M269.442 33.7495C268.485 34.2573 267.977 35.3901 268.279 36.3374C268.504 37.0112 272.752 44.2084 273.201 44.6576C274.09 45.5755 275.613 45.5169 276.482 44.5502C276.941 44.0423 277.088 43.5736 277.039 42.8217C277 42.226 276.951 42.1185 275.018 38.8471C272.039 33.8276 272.254 34.1596 271.736 33.8276C271.365 33.603 271.131 33.5346 270.623 33.5054C270.067 33.4761 269.91 33.5054 269.442 33.7495Z" fill="white"/>
<path d="M9.70855 38.2811C9.0152 38.4862 8.52692 39.3456 8.66364 40.0878C8.78082 40.7323 10.314 42.9686 11.857 44.7752C15.7436 49.2966 21.31 52.6071 27.2084 53.906C31.5345 54.8532 36.0462 54.7849 40.3137 53.7107C41.9348 53.3005 42.3449 52.9392 42.3449 51.9431C42.3449 51.2986 42.1691 50.9763 41.6125 50.6052C41.1926 50.3123 40.7629 50.322 39.552 50.6247C36.1633 51.4841 32.6087 51.6404 29.2494 51.0642C23.9271 50.156 19.2592 47.7537 15.4897 43.9842C14.1616 42.6561 13.3316 41.6405 12.2085 39.9315C11.73 39.2089 11.2124 38.5448 11.066 38.4471C10.7242 38.2323 10.1089 38.1542 9.70855 38.2811Z" fill="#4659A4"/>
</svg>
