<svg width="138" height="32" viewBox="0 0 138 32" fill="none" xmlns="http://www.w3.org/2000/svg">
<path fill-rule="evenodd" clip-rule="evenodd" d="M0 0V23.8783H4.88421V17.3661H9.22572C11.5286 17.3661 13.7372 16.4512 15.3656 14.8229C16.9939 13.1945 17.9088 10.9859 17.9088 8.68303C17.9088 6.38015 16.9939 4.17159 15.3656 2.5432C13.7372 0.914817 11.5286 0 9.22572 0H0ZM8.68393 13.0245H4.88421V4.34152H8.68303C9.83447 4.34152 10.9388 4.79892 11.753 5.61311C12.5671 6.42731 13.0245 7.53159 13.0245 8.68303C13.0245 9.83447 12.5671 10.9387 11.753 11.7529C10.939 12.5669 9.83505 13.0243 8.68393 13.0245Z" fill="black"/>
<path fill-rule="evenodd" clip-rule="evenodd" d="M26.5918 24.4211C21.9789 24.4211 17.9088 20.3509 17.9088 15.1953C17.9088 10.0398 21.9789 5.96958 26.5918 5.96958C29.8479 5.96958 30.9333 7.05496 31.7473 7.869L32.29 6.51231H36.3602V23.8784H32.29L31.7473 22.5216C30.9333 23.3356 29.8479 24.4211 26.5918 24.4211ZM22.5216 15.1953C22.5216 12.4819 24.8019 10.3111 27.5153 10.3111C30.2288 10.3111 32.29 12.4819 32.29 15.1953C32.29 17.9088 30.1193 20.0795 27.4058 20.0795C24.6924 20.0795 22.5216 17.9088 22.5216 15.1953Z" fill="black"/>
<path d="M42.2304 15.9473L42.2228 15.9444L42.2151 15.9419C39.9495 15.2182 38.1774 13.7793 38.1774 11.5577C38.1774 8.23534 41.2025 5.96958 44.7901 5.96958C45.93 5.96958 47.4687 6.19713 48.7686 6.97934C49.9968 7.71848 51.0279 8.96104 51.3058 11.0302H46.6343C46.6022 10.8231 46.5299 10.5545 46.3438 10.3115C46.0602 9.94113 45.56 9.68538 44.726 9.68538C44.1058 9.68538 43.6564 9.88214 43.3615 10.1771C43.0713 10.4673 42.9498 10.8339 42.9498 11.1414C42.9498 11.7651 43.3803 12.2126 43.9121 12.5376C44.4488 12.8656 45.1586 13.1138 45.8658 13.3228L45.8704 13.3241C47.3863 13.7433 48.8915 14.1653 50.0235 14.9431C51.1315 15.7044 51.883 16.8078 51.883 18.6338C51.883 22.1749 48.7685 24.414 44.9181 24.414C43.6078 24.414 41.9733 24.1165 40.616 23.2629C39.3308 22.4547 38.2815 21.1413 37.9883 19.0652H42.7387C42.9142 19.8348 43.3861 20.2534 43.8611 20.4697C44.363 20.6982 44.8588 20.6982 44.9804 20.6982H44.9822C45.4773 20.6982 45.9957 20.5578 46.398 20.288C46.8037 20.016 47.1106 19.596 47.1106 19.05C47.1106 18.734 47.049 18.4556 46.9058 18.2069C46.7636 17.9599 46.5527 17.7627 46.2874 17.5892C45.7771 17.2557 45.0015 16.9726 43.9649 16.5942L43.9254 16.5798C43.4289 16.3986 42.8663 16.1932 42.2304 15.9473Z" fill="black"/>
<path d="M56.883 15.9473L56.8754 15.9444L56.8677 15.9419C54.6021 15.2182 52.83 13.7793 52.83 11.5577C52.83 8.23534 55.8551 5.96958 59.4427 5.96958C60.5826 5.96958 62.1213 6.19713 63.4212 6.97934C64.6494 7.71848 65.6805 8.96104 65.9584 11.0302H61.287C61.2548 10.8231 61.1825 10.5545 60.9964 10.3115C60.7128 9.94113 60.2126 9.68538 59.3786 9.68538C58.7584 9.68538 58.309 9.88214 58.0141 10.1771C57.7239 10.4673 57.6024 10.8339 57.6024 11.1414C57.6024 11.7651 58.0329 12.2126 58.5648 12.5376C59.1014 12.8656 59.8112 13.1138 60.5185 13.3228L60.523 13.3241C62.0389 13.7433 63.5441 14.1653 64.6762 14.9431C65.7841 15.7044 66.5356 16.8078 66.5356 18.6338C66.5356 22.1749 63.4211 24.414 59.5708 24.414C58.2604 24.414 56.6259 24.1165 55.2686 23.2629C53.9834 22.4547 52.9342 21.1413 52.6409 19.0652H57.3913C57.5669 19.8348 58.0388 20.2534 58.5138 20.4697C59.0157 20.6982 59.5114 20.6982 59.6331 20.6982H59.6348C60.1299 20.6982 60.6483 20.5578 61.0506 20.288C61.4563 20.016 61.7632 19.596 61.7632 19.05C61.7632 18.734 61.7016 18.4556 61.5584 18.2069C61.4162 17.9599 61.2053 17.7627 60.94 17.5892C60.4297 17.2557 59.6541 16.9726 58.6175 16.5942L58.578 16.5798C58.0815 16.3986 57.5189 16.1932 56.883 15.9473Z" fill="black"/>
<path fill-rule="evenodd" clip-rule="evenodd" d="M67.2935 15.1953C67.2935 20.3509 71.3637 24.4211 75.9765 24.4211C79.2327 24.4211 80.318 23.3356 81.1321 22.5216L81.6748 23.8784H85.7449V6.51231H81.6748L81.1321 7.869C80.318 7.05496 79.2327 5.96958 75.9765 5.96958C71.3637 5.96958 67.2935 10.0398 67.2935 15.1953ZM76.9001 10.3111C74.1866 10.3111 71.9064 12.4819 71.9064 15.1953C71.9064 17.9088 74.0771 20.0795 76.7906 20.0795C79.504 20.0795 81.6748 17.9088 81.6748 15.1953C81.6748 12.4819 79.6135 10.3111 76.9001 10.3111Z" fill="black"/>
<path fill-rule="evenodd" clip-rule="evenodd" d="M96.056 24.4211C91.4432 24.4211 87.373 20.3509 87.373 15.1953C87.373 10.0398 91.4432 5.96958 96.056 5.96958C99.3122 5.96958 100.398 7.05496 101.212 7.869L101.754 6.51231H105.824V23.3356C105.799 24.3905 105.671 25.6582 105.185 26.8973C104.579 28.4416 103.455 29.8266 101.583 30.7804C98.5926 32.3034 93.1795 32.8572 88.6591 29.6917L91.1494 26.1354C94.1415 28.2307 97.8043 27.8327 99.6123 26.9118C100.508 26.4554 100.913 25.8993 101.143 25.3121C101.406 24.6409 101.483 23.8193 101.483 22.793V22.5216C100.669 23.3356 99.3122 24.4211 96.056 24.4211ZM91.9859 15.1953C91.9859 12.4819 94.2661 10.3111 96.9796 10.3111C99.693 10.3111 101.754 12.4819 101.754 15.1953C101.754 17.9088 99.5835 20.0795 96.8701 20.0795C94.1566 20.0795 91.9859 17.9088 91.9859 15.1953Z" fill="black"/>
<path fill-rule="evenodd" clip-rule="evenodd" d="M107.453 15.1953C107.453 20.2905 111.583 24.421 116.678 24.421C117.339 24.4212 121.03 24.4219 124.09 21.7019L121.206 18.457C119.403 20.0596 117.141 20.0795 116.678 20.0795C114.67 20.0795 112.961 18.7204 112.328 16.8234H125.761C125.855 16.2949 125.904 15.7508 125.904 15.1953C125.904 10.1001 121.773 5.96958 116.678 5.96958C111.583 5.96958 107.453 10.1001 107.453 15.1953ZM121.029 13.5672C120.395 11.6702 118.687 10.3111 116.678 10.3111C114.67 10.3111 112.961 11.6702 112.328 13.5672H121.029Z" fill="black"/>
<circle cx="133.104" cy="20.3999" r="4" fill="#FF6F00"/>
</svg>
